<?xml version="1.0" encoding="utf-8"?>
<svg width="299px" height="276px" viewBox="0 0 299 276" version="1.1" xmlns:xlink="http://www.w3.org/1999/xlink" xmlns="http://www.w3.org/2000/svg">
  <desc>Created with Lunacy</desc>
  <g id="guarantee" opacity="0.1">
    <g id="Group-3" transform="translate(39.34026 137.0967)">
      <path d="M152.961 126.326C96.0122 142.732 37.0112 118.773 6.52029 71.3691L0 73.2469C31.699 124.09 94.3386 149.977 154.759 132.566C215.191 115.156 254.456 59.9107 254.234 0L247.713 1.87783C247.118 58.2385 209.909 109.92 152.961 126.326" id="Fill-1" fill="#151723" stroke="none" />
    </g>
    <path d="M101.062 11.6516C155.342 -3.98654 211.497 17.0423 243.043 60.1011L249.675 58.1904C216.836 11.6944 157.041 -11.2365 99.2624 5.41119C41.4865 22.0561 3.06594 73.2845 0 130.125L6.62454 128.217C10.4216 74.9753 46.7802 27.2912 101.062 11.6516" transform="translate(18.70138 0)" id="Fill-4" fill="#272934" stroke="none" />
    <path d="M137.824 116.05C191.173 100.679 226.27 52.6921 227.69 0L224.013 1.06101C222.163 51.7525 188.217 97.7458 136.818 112.554C85.4278 127.36 32.2159 106.478 3.6657 64.546L0 65.5999C29.2385 109.458 84.4839 131.418 137.824 116.05" transform="translate(52.61674 140.917)" id="Fill-6" fill="#272934" stroke="none" />
    <path d="M89.3934 4.88978C38.7433 19.4826 4.54535 63.4981 0 113.013L3.76423 111.928C8.68658 64.4421 41.7122 22.4143 90.4016 8.38697C139.102 -5.64322 189.424 12.3697 218.847 49.9606L222.612 48.8753C192.43 9.36658 140.055 -9.70591 89.3934 4.88978" transform="translate(32.22849 13.21582)" id="Fill-8" fill="#272934" stroke="none" />
    <g id="Group-12" transform="translate(0 145.083)">
      <path d="M30.0759 18.811L16.11 22.8337L18.2705 30.3322L23.9255 28.7057L26.9414 39.173C25.6262 39.9356 24.281 40.5125 22.9059 40.9095C20.3026 41.6592 17.925 40.8666 15.7744 38.5318C13.6252 36.1942 11.8102 32.4671 10.3351 27.3405C8.90137 22.3625 8.70859 18.1599 9.76389 14.7312C10.8163 11.3026 12.9598 9.12484 16.1871 8.19235C18.4376 7.54546 21.0694 7.5983 24.0854 8.35657L24.7737 0.643892C20.9224 -0.275746 17.1724 -0.210058 13.5267 0.839529C7.6333 2.53743 3.64202 5.93038 1.55569 11.0227C-0.530628 16.1121 -0.519204 22.3239 1.59425 29.6553C3.78482 37.2595 6.89502 42.6688 10.9234 45.8847C14.9519 49.1005 19.6229 49.9431 24.9336 48.4122C29.3905 47.1285 33.3575 45.0721 36.8275 42.2432L30.0759 18.811Z" id="Fill-10" fill="#151723" stroke="none" />
    </g>
    <path d="M8.47809 37.5795C10.0803 43.143 12.4779 47.0029 15.6724 49.1607C18.8669 51.3198 22.7325 51.7453 27.2736 50.4373C31.9189 49.0978 35.0591 46.6445 36.6913 43.0716C38.3235 39.5002 38.3578 34.9934 36.7898 29.5584L28.2746 0L19.8393 2.43047L28.5545 32.6757C29.3385 35.4061 29.4556 37.6509 28.9029 39.4102C28.3503 41.1724 27.1779 42.3105 25.3857 42.8274C21.533 43.9356 18.7683 41.5865 17.0933 35.7731L8.43525 5.71775L0 8.14679L8.47809 37.5795Z" transform="translate(31.31784 133.3613)" id="Fill-13" fill="#272934" stroke="none" />
    <path d="M0 3.32155L11.5297 0L36.0872 42.6004L27.5577 45.058L21.6115 34.2837L9.70618 37.7137L10.403 49.9989L1.90496 52.4494L0 3.32155ZM8.21962 13.9988C8.42383 16.275 8.75798 21.5072 9.22494 29.6969L17.8473 27.2136L12.3494 17.2918C12.0181 16.6877 11.2227 15.1626 9.96608 12.715Q8.07896 9.04786 7.5456 7.77978C7.78979 9.64905 8.01399 11.7225 8.21962 13.9988Z" transform="translate(75.01222 125.3936)" id="Fill-15" fill="#272934" fill-rule="evenodd" stroke="none" />
    <path d="M28.8072 10.5291C30.4694 16.2997 29.684 20.8921 26.4496 24.3051L40.9982 41.8025L31.906 44.4215L19.568 28.7234L16.5378 29.5973L21.6586 47.3746L13.1591 49.8236L0 4.14302L11.1242 0.938571C15.8295 -0.418038 19.6251 -0.303797 22.5054 1.27987C25.3872 2.86353 27.4892 5.9466 28.8072 10.5291ZM16.6177 21.656C18.617 21.0805 19.8907 20.098 20.4391 18.71C20.986 17.3234 20.9375 15.5041 20.2892 13.255C19.6151 10.9216 18.6741 9.39364 17.4603 8.67107C16.2479 7.94992 14.6756 7.8671 12.7378 8.42545L10.613 9.03807L14.43 22.2843L16.6177 21.656Z" transform="translate(102.2901 116.916)" id="Fill-17" fill="#272934" fill-rule="evenodd" stroke="none" />
    <path d="M0 3.32298L11.5312 0L36.0872 42.6004L27.5577 45.058L21.6115 34.2851L9.70761 37.7152L10.4045 50.0003L1.90496 52.4494L0 3.32298ZM8.21963 13.9988C8.42383 16.2765 8.76084 21.5087 9.22495 29.6983L17.8473 27.2136L12.3494 17.2918C12.0196 16.6892 11.2227 15.1641 9.96608 12.7164C8.70801 10.2717 7.90118 8.6252 7.54561 7.78125C7.79123 9.65051 8.014 11.7226 8.21963 13.9988Z" transform="translate(141.8288 106.1421)" id="Fill-19" fill="#272934" fill-rule="evenodd" stroke="none" />
    <path d="M31.996 0L24.1833 2.25054L31.3677 27.185C32.2387 30.2053 33.1841 32.7514 34.2122 34.8234L33.8681 34.9234L10.4345 6.21184L0 9.2178L13.1605 54.8984L21.0346 52.6307L13.8417 27.6648C13.0077 24.7703 11.9667 22.137 10.7215 19.7665L11.127 19.6494L34.782 48.668L45.1565 45.6806L31.996 0Z" transform="translate(169.1063 92.59082)" id="Fill-21" fill="#272934" stroke="none" />
    <path d="M25.9655 0L0 7.48134L2.15201 14.9484L10.9014 12.4265L21.91 50.6401L30.3781 48.201L19.3681 9.9875L28.1175 7.46706L25.9655 0Z" transform="translate(206.2951 83.61328)" id="Fill-23" fill="#272934" stroke="none" />
    <path d="M22.7053 7.34282L20.5905 0L0 5.93338L13.1605 51.6125L33.7496 45.6806L31.6076 38.2435L19.5166 41.7293L15.8695 29.0743L27.0865 25.8427L24.9616 18.4684L13.746 21.7L10.613 10.8272L22.7053 7.34282Z" transform="translate(237.4559 76.18408)" id="Fill-25" fill="#272934" stroke="none" />
    <path d="M22.7054 7.34282L20.5905 0L0 5.93195L13.1605 51.6125L33.751 45.6806L31.609 38.2449L19.5166 41.7279L15.8695 29.0728L27.0879 25.8427L24.963 18.4684L13.746 21.7L10.6115 10.8257L22.7054 7.34282Z" transform="translate(265.0217 68.24219)" id="Fill-27" fill="#272934" stroke="none" />
    <path d="M13.8446 3.79402C14.1973 5.02068 14.2601 6.08169 14.0316 6.97562C13.8031 7.87241 13.2762 8.73921 12.4537 9.58174C13.8046 9.78452 14.8342 10.2172 15.5467 10.8769C16.2593 11.5381 16.7991 12.5134 17.1718 13.8044C17.5917 15.2595 17.4217 16.6347 16.6634 17.9342C15.9066 19.2294 14.767 20.0962 13.2462 20.536L5.90768 22.648L0 2.14752L6.28753 0.335378Q8.94576 -0.429321 11.0685 0.549579C12.4851 1.20361 13.409 2.28604 13.8446 3.79402ZM5.37931 4.15372L5.9548 3.98807C7.81407 3.45256 9.00788 4.10231 9.53767 5.94016C9.76758 6.74127 9.73046 7.44099 9.42058 8.04647C9.11355 8.65195 8.58376 9.06036 7.83834 9.27599L6.93013 9.53874L5.37931 4.15372ZM10.6558 17.6373C11.4127 17.406 11.9324 17.0019 12.2181 16.4235C12.5022 15.8423 12.5236 15.1326 12.2809 14.2886C11.7611 12.4836 10.5773 11.8467 8.73085 12.378L7.82407 12.6407L9.3806 18.0414L10.6558 17.6373Z" transform="translate(68.91205 186.5513)" id="Fill-29" fill="#272934" fill-rule="evenodd" stroke="none" />
    <path d="M10.7258 3.95702L9.5848 0L0 2.7632L5.90768 23.2651L16.1337 20.3192L14.9698 16.2807L9.14355 17.9587L7.83834 13.429L12.2866 12.1467L11.187 8.33815L6.74021 9.62193L5.53925 5.45214L10.7258 3.95702Z" transform="translate(87.33951 180.6265)" id="Fill-31" fill="#272934" stroke="none" />
    <path d="M9.28075 16.9773C8.96801 17.4342 8.50534 17.7512 7.89272 17.9283C6.52469 18.3224 4.94245 17.9711 3.14602 16.8801L4.54118 21.7211C6.2705 22.3723 7.87987 22.4837 9.36785 22.0553C11.1829 21.5312 12.5023 20.523 13.322 19.0293C14.1417 17.5399 14.2916 15.8891 13.7718 14.0841C13.5077 13.1645 13.1035 12.3634 12.5637 11.6765C12.0211 10.991 11.4056 10.437 10.7145 10.0143C10.0247 9.59016 8.91232 9.06037 7.37578 8.4249C5.9035 7.79372 5.06526 7.12256 4.85963 6.41284C4.74682 6.01728 4.8325 5.60887 5.11953 5.18189C5.4037 4.75492 5.78926 4.4736 6.2705 4.33365C7.34437 4.0252 8.66099 4.38649 10.2261 5.41608L8.74524 0.279533C7.24012 -0.0931776 5.8421 -0.0931776 4.54975 0.279533C2.84185 0.76934 1.5852 1.69041 0.775522 3.03559C-0.0313027 4.38506 -0.209804 5.84592 0.245731 7.42101C0.455648 8.15501 0.794087 8.84188 1.25676 9.48591C1.71944 10.1271 2.31349 10.7283 3.03606 11.2838C3.76006 11.8393 5.16522 12.599 7.25868 13.56C8.56531 14.1555 9.32644 14.8195 9.53779 15.5535C9.67916 16.0462 9.59491 16.5203 9.28075 16.9773" transform="translate(103.6238 176.5928)" id="Fill-33" fill="#272934" stroke="none" />
    <path d="M14.41 21.6515L9.64764 5.12084L13.6361 3.97272L12.4908 0L0 3.59858L1.15383 7.60415L5.22509 6.43176L9.97751 22.9296L14.41 21.6515Z" transform="translate(117.5134 171.0972)" id="Fill-35" fill="#272934" stroke="none" />
    <path d="M4.78113 6.23459C5.0753 5.32495 5.59509 4.76517 6.33909 4.54811C7.05166 4.3439 7.70141 4.42387 8.2926 4.78659C8.8838 5.1493 9.37075 5.73479 9.74917 6.54447C10.1305 7.35272 10.6417 8.87498 11.2857 11.107C11.5056 11.8709 11.8226 13.0548 12.2368 14.6541L12.1725 14.6727L9.36076 11.7681L7.53576 13.9987L11.0572 16.9147C10.7374 17.1589 10.4118 17.3317 10.0833 17.4259C9.45072 17.6087 8.85524 17.5416 8.30403 17.2274C7.74996 16.9132 7.28729 16.3949 6.91172 15.6709C6.53901 14.9512 6.04634 13.5274 5.43516 11.4054C4.70259 8.86641 4.48553 7.1428 4.78113 6.23459M6.7832 21.5759C8.1241 22.1142 9.64065 22.1399 11.3371 21.6516C12.5852 21.2917 13.6662 20.6605 14.5787 19.758L17.0692 21.7401L18.8713 19.4796L16.0581 17.179C16.795 15.2969 16.625 12.4837 15.5469 8.74093C14.8415 6.28904 14.0146 4.41834 13.0679 3.12742C12.1211 1.83365 10.9801 0.928289 9.64207 0.407066C8.30831 -0.114158 6.80176 -0.135578 5.12956 0.347089C2.95185 0.973986 1.43102 2.3206 0.568502 4.38264C-0.2983 6.44326 -0.172635 9.40067 0.936928 13.252C1.62808 15.6496 2.43777 17.5003 3.37311 18.8084C4.3056 20.1165 5.44373 21.0375 6.7832 21.5759" transform="translate(146.5431 164.063)" id="Fill-37" fill="#272934" stroke="none" />
    <path d="M0 3.78708L4.14123 18.1657C4.7467 20.2663 5.78344 21.7186 7.25143 22.5154C8.71943 23.3123 10.5159 23.4051 12.6393 22.7953C14.6856 22.2041 16.1279 21.1931 16.9648 19.7608C17.803 18.3285 17.9444 16.6492 17.3903 14.7214L13.1477 0L8.66373 1.29092L12.665 15.1783C12.9121 16.0294 12.9249 16.762 12.7036 17.3717C12.4822 17.9801 12.0538 18.3756 11.4184 18.5584C10.7401 18.7526 10.1374 18.647 9.60907 18.2357C9.08357 17.823 8.68087 17.1375 8.40384 16.1736L4.46396 2.50187L0 3.78708Z" transform="translate(165.0312 157.2192)" id="Fill-39" fill="#272934" stroke="none" />
    <path d="M11.2099 20.2692L9.60336 17.2646L4.20549 18.8212L4.38399 22.2355L0.0471243 23.4865L0 1.2952L4.4968 0L15.5439 19.0211L11.2099 20.2692ZM3.63001 5.68359L3.56146 5.70216L4.06127 15.2712L8.02114 14.1303L3.63001 5.68359Z" transform="translate(188.7428 152.8789)" id="Fill-41" fill="#272934" fill-rule="evenodd" stroke="none" />
    <path d="M14.3286 14.9684L9.14212 16.4635L4.39827 0L0 1.26664L5.90768 21.7686L15.4925 19.0068L14.3286 14.9684Z" transform="translate(203.493 148.6582)" id="Fill-43" fill="#272934" stroke="none" />
    <path d="M5.90768 21.7771L10.3388 20.5005L4.43111 0L0 1.27664L5.90768 21.7771Z" transform="translate(218.6704 144.2759)" id="Fill-45" fill="#272934" stroke="none" />
    <path d="M14.41 21.6515L9.64906 5.12084L13.6375 3.97129L12.4908 0L0 3.59858L1.15526 7.60272L5.22509 6.43033L9.97893 22.9281L14.41 21.6515Z" transform="translate(228.774 139.0425)" id="Fill-47" fill="#272934" stroke="none" />
    <path d="M15.6239 21.82L13.0092 12.745L14.2972 0L9.89325 1.26807L9.27064 8.46239L4.77669 2.74178L0 4.11838L8.61947 14.0459L11.2242 23.0895L15.6239 21.82Z" transform="translate(245.2485 133.7754)" id="Fill-49" fill="#272934" stroke="none" />
    <path d="M19.3395 33.2598L20.8475 21.4016L31.976 17.0333L21.1617 11.9324L20.4434 0L12.2538 8.70943L0.684017 5.70347L6.43604 16.1836L0 26.2625L11.744 24.0291L19.3395 33.2598Z" transform="translate(165.0284 202.8213)" id="Fill-51" fill="#272934" stroke="none" />
    <path d="M14.0859 24.2247L15.1855 15.5867L23.2866 12.4065L15.4139 8.69229L14.8899 0L8.92506 6.34464L0.498376 4.15408L4.68673 11.7868L0 19.1282L8.55378 17.5017L14.0859 24.2247Z" transform="translate(136.6011 212.6123)" id="Fill-53" fill="#272934" stroke="none" />
    <path d="M14.0845 24.2247L15.1826 15.5881L23.2851 12.4065L15.4125 8.69229L14.8884 0L8.92363 6.34322L0.496947 4.15408L4.68816 11.7868L0 19.1282L8.55235 17.5031L14.0845 24.2247Z" transform="translate(200.1977 194.2896)" id="Fill-55" fill="#272934" stroke="none" />
    <path d="M20.2292 9.22923L12.6322 0L11.1299 11.8496L0 16.2236L10.8129 21.323L11.5312 33.2512L19.7151 24.5475L31.2834 27.5492L25.5342 17.069L31.9746 6.98582L20.2292 9.22923Z" transform="translate(118.4327 47.37793)" id="Fill-57" fill="#272934" stroke="none" />
    <path d="M14.7328 6.72164L9.20637 0L8.10252 8.64517L0 11.8168L7.86547 15.5325L8.39384 24.2276L14.3572 17.8844L22.7896 20.0692L18.6027 12.4394L23.2794 5.09657L14.7328 6.72164Z" transform="translate(155.5461 46.61328)" id="Fill-59" fill="#272934" stroke="none" />
    <path d="M14.7313 6.71736L9.1921 0L8.1011 8.64089L0 11.8125L7.86548 15.5282L8.39241 24.2233L14.3572 17.8815L22.7768 20.0678L18.5884 12.4394L23.2808 5.09228L14.7313 6.71736Z" transform="translate(91.95512 64.93896)" id="Fill-61" fill="#272934" stroke="none" />
  </g>
</svg>